<svg xmlns="http://www.w3.org/2000/svg" xmlns:xlink="http://www.w3.org/1999/xlink" width="250" zoomAndPan="magnify" viewBox="0 0 187.5 33.749998" height="45" preserveAspectRatio="xMidYMid meet" version="1.0"><defs><g/><clipPath id="c8900a5f0a"><path d="M 49 0 L 186.5625 0 L 186.5625 33.5 L 49 33.5 Z M 49 0 " clip-rule="nonzero"/></clipPath><clipPath id="9da5fdbf8f"><rect x="0" width="138" y="0" height="34"/></clipPath><clipPath id="47f2a94ccc"><path d="M 0.441406 0 L 55 0 L 55 33.5 L 0.441406 33.5 Z M 0.441406 0 " clip-rule="nonzero"/></clipPath><clipPath id="4aa6ddf8a7"><path d="M 0.679688 2 L 24 2 L 24 25 L 0.679688 25 Z M 0.679688 2 " clip-rule="nonzero"/></clipPath><clipPath id="c45799c0b5"><rect x="0" width="55" y="0" height="34"/></clipPath></defs><g clip-path="url(#c8900a5f0a)"><g transform="matrix(1, 0, 0, 1, 49, -0.000000000000001055)"><g clip-path="url(#9da5fdbf8f)"><g fill="#000000" fill-opacity="1"><g transform="translate(1.155357, 24.649843)"><g><path d="M 1.609375 0 L 1.609375 -13.78125 L 6.359375 -13.78125 L 6.359375 -12.328125 L 6.421875 -12.328125 C 7.648438 -13.566406 8.96875 -14.1875 10.375 -14.1875 C 11.375 -14.1875 12.3125 -13.976562 13.1875 -13.5625 C 14.0625 -13.15625 14.722656 -12.519531 15.171875 -11.65625 C 16.566406 -13.34375 18.085938 -14.1875 19.734375 -14.1875 C 21.203125 -14.1875 22.460938 -13.769531 23.515625 -12.9375 C 24.578125 -12.113281 25.109375 -10.828125 25.109375 -9.078125 L 25.109375 0 L 20.359375 0 L 20.359375 -7.796875 C 20.359375 -8.523438 20.15625 -9.132812 19.75 -9.625 C 19.351562 -10.125 18.75 -10.375 17.9375 -10.375 C 17.238281 -10.375 16.707031 -10.160156 16.34375 -9.734375 C 15.976562 -9.316406 15.773438 -8.8125 15.734375 -8.21875 L 15.734375 0 L 10.984375 0 L 10.984375 -7.796875 C 10.984375 -8.523438 10.78125 -9.132812 10.375 -9.625 C 9.976562 -10.125 9.375 -10.375 8.5625 -10.375 C 7.832031 -10.375 7.28125 -10.144531 6.90625 -9.6875 C 6.539062 -9.226562 6.359375 -8.6875 6.359375 -8.0625 L 6.359375 0 Z M 1.609375 0 "/></g></g></g><g fill="#000000" fill-opacity="1"><g transform="translate(26.212339, 24.649843)"><g><path d="M 2.546875 -1.703125 C 1.265625 -3.109375 0.625 -4.832031 0.625 -6.875 C 0.625 -8.914062 1.265625 -10.644531 2.546875 -12.0625 C 3.835938 -13.476562 5.476562 -14.1875 7.46875 -14.1875 C 9.289062 -14.1875 10.796875 -13.613281 11.984375 -12.46875 L 11.984375 -13.78125 L 16.734375 -13.78125 L 16.734375 0 L 12.03125 0 L 12.03125 -1.5625 L 11.984375 -1.5625 C 10.796875 -0.25 9.289062 0.40625 7.46875 0.40625 C 5.476562 0.40625 3.835938 -0.296875 2.546875 -1.703125 Z M 6.59375 -9.203125 C 5.976562 -8.597656 5.671875 -7.820312 5.671875 -6.875 C 5.671875 -5.925781 5.960938 -5.148438 6.546875 -4.546875 C 7.140625 -3.953125 7.921875 -3.65625 8.890625 -3.65625 C 9.816406 -3.65625 10.582031 -3.957031 11.1875 -4.5625 C 11.789062 -5.175781 12.09375 -5.945312 12.09375 -6.875 C 12.09375 -7.820312 11.78125 -8.597656 11.15625 -9.203125 C 10.539062 -9.816406 9.785156 -10.125 8.890625 -10.125 C 7.972656 -10.125 7.207031 -9.816406 6.59375 -9.203125 Z M 6.59375 -9.203125 "/></g></g></g><g fill="#000000" fill-opacity="1"><g transform="translate(43.158694, 24.649843)"><g><path d="M 1.609375 0 L 1.609375 -13.78125 L 6.359375 -13.78125 L 6.359375 -11.796875 L 6.421875 -11.796875 C 6.453125 -11.867188 6.507812 -11.957031 6.59375 -12.0625 C 6.675781 -12.164062 6.847656 -12.351562 7.109375 -12.625 C 7.378906 -12.894531 7.664062 -13.132812 7.96875 -13.34375 C 8.28125 -13.5625 8.675781 -13.753906 9.15625 -13.921875 C 9.644531 -14.097656 10.140625 -14.1875 10.640625 -14.1875 C 11.160156 -14.1875 11.671875 -14.113281 12.171875 -13.96875 C 12.671875 -13.820312 13.035156 -13.675781 13.265625 -13.53125 L 13.640625 -13.328125 L 11.65625 -9.296875 C 11.0625 -9.796875 10.238281 -10.046875 9.1875 -10.046875 C 8.613281 -10.046875 8.117188 -9.921875 7.703125 -9.671875 C 7.296875 -9.421875 7.003906 -9.113281 6.828125 -8.75 C 6.660156 -8.394531 6.539062 -8.09375 6.46875 -7.84375 C 6.394531 -7.59375 6.359375 -7.394531 6.359375 -7.25 L 6.359375 0 Z M 1.609375 0 "/></g></g></g><g fill="#000000" fill-opacity="1"><g transform="translate(55.136608, 24.649843)"><g><path d="M 17.34375 -13.78125 L 10.796875 -7.203125 L 18 0 L 11.875 0 L 6.359375 -5.5 L 6.359375 0 L 1.609375 0 L 1.609375 -23.09375 L 6.359375 -23.09375 L 6.359375 -8.96875 L 11.171875 -13.78125 Z M 17.34375 -13.78125 "/></g></g></g><g fill="#000000" fill-opacity="1"><g transform="translate(71.089278, 24.649843)"><g><path d="M 15.546875 -6.234375 L 5.5625 -6.234375 C 5.5625 -5.265625 5.875 -4.546875 6.5 -4.078125 C 7.125 -3.617188 7.804688 -3.390625 8.546875 -3.390625 C 9.316406 -3.390625 9.925781 -3.488281 10.375 -3.6875 C 10.820312 -3.894531 11.332031 -4.304688 11.90625 -4.921875 L 15.34375 -3.203125 C 13.90625 -0.796875 11.519531 0.40625 8.1875 0.40625 C 6.113281 0.40625 4.332031 -0.304688 2.84375 -1.734375 C 1.363281 -3.160156 0.625 -4.875 0.625 -6.875 C 0.625 -8.882812 1.363281 -10.601562 2.84375 -12.03125 C 4.332031 -13.46875 6.113281 -14.1875 8.1875 -14.1875 C 10.375 -14.1875 12.148438 -13.550781 13.515625 -12.28125 C 14.890625 -11.019531 15.578125 -9.21875 15.578125 -6.875 C 15.578125 -6.550781 15.566406 -6.335938 15.546875 -6.234375 Z M 5.6875 -8.859375 L 10.9375 -8.859375 C 10.820312 -9.578125 10.535156 -10.128906 10.078125 -10.515625 C 9.628906 -10.898438 9.046875 -11.09375 8.328125 -11.09375 C 7.535156 -11.09375 6.90625 -10.882812 6.4375 -10.46875 C 5.976562 -10.0625 5.726562 -9.523438 5.6875 -8.859375 Z M 5.6875 -8.859375 "/></g></g></g><g fill="#000000" fill-opacity="1"><g transform="translate(85.887117, 24.649843)"><g><path d="M 2.421875 -13.78125 L 2.421875 -18.90625 L 7.171875 -18.90625 L 7.171875 -13.78125 L 10.078125 -13.78125 L 10.078125 -10.15625 L 7.171875 -10.15625 L 7.171875 -5.78125 C 7.171875 -4.507812 7.53125 -3.875 8.25 -3.875 C 8.425781 -3.875 8.613281 -3.90625 8.8125 -3.96875 C 9.007812 -4.039062 9.160156 -4.113281 9.265625 -4.1875 L 9.421875 -4.296875 L 10.609375 -0.453125 C 9.585938 0.117188 8.425781 0.40625 7.125 0.40625 C 6.226562 0.40625 5.457031 0.25 4.8125 -0.0625 C 4.164062 -0.375 3.675781 -0.796875 3.34375 -1.328125 C 3.007812 -1.859375 2.769531 -2.414062 2.625 -3 C 2.488281 -3.582031 2.421875 -4.203125 2.421875 -4.859375 L 2.421875 -10.15625 L 0.4375 -10.15625 L 0.4375 -13.78125 Z M 2.421875 -13.78125 "/></g></g></g><g fill="#000000" fill-opacity="1"><g transform="translate(95.098823, 24.649843)"><g><path d="M 2.0625 -21.453125 C 2.625 -22.015625 3.285156 -22.296875 4.046875 -22.296875 C 4.816406 -22.296875 5.476562 -22.015625 6.03125 -21.453125 C 6.59375 -20.898438 6.875 -20.238281 6.875 -19.46875 C 6.875 -18.695312 6.59375 -18.035156 6.03125 -17.484375 C 5.476562 -16.929688 4.816406 -16.65625 4.046875 -16.65625 C 3.285156 -16.65625 2.625 -16.929688 2.0625 -17.484375 C 1.507812 -18.035156 1.234375 -18.695312 1.234375 -19.46875 C 1.234375 -20.238281 1.507812 -20.898438 2.0625 -21.453125 Z M 1.609375 -13.78125 L 1.609375 0 L 6.359375 0 L 6.359375 -13.78125 Z M 1.609375 -13.78125 "/></g></g></g><g fill="#000000" fill-opacity="1"><g transform="translate(101.812885, 24.649843)"><g><path d="M 1.609375 0 L 1.609375 -13.78125 L 6.359375 -13.78125 L 6.359375 -12.328125 L 6.421875 -12.328125 C 7.648438 -13.566406 8.96875 -14.1875 10.375 -14.1875 C 11.050781 -14.1875 11.722656 -14.09375 12.390625 -13.90625 C 13.066406 -13.726562 13.710938 -13.453125 14.328125 -13.078125 C 14.941406 -12.703125 15.441406 -12.171875 15.828125 -11.484375 C 16.210938 -10.796875 16.40625 -9.992188 16.40625 -9.078125 L 16.40625 0 L 11.65625 0 L 11.65625 -7.796875 C 11.65625 -8.503906 11.425781 -9.125 10.96875 -9.65625 C 10.507812 -10.195312 9.914062 -10.46875 9.1875 -10.46875 C 8.46875 -10.46875 7.816406 -10.191406 7.234375 -9.640625 C 6.648438 -9.085938 6.359375 -8.472656 6.359375 -7.796875 L 6.359375 0 Z M 1.609375 0 "/></g></g></g><g fill="#000000" fill-opacity="1"><g transform="translate(118.16839, 24.649843)"><g><path d="M 1 3.390625 L 4.890625 1.484375 C 5.609375 2.660156 6.851562 3.25 8.625 3.25 C 9.445312 3.25 10.210938 2.984375 10.921875 2.453125 C 11.628906 1.929688 11.984375 1.125 11.984375 0.03125 L 11.984375 -1 C 11.140625 -0.0625 9.632812 0.40625 7.46875 0.40625 C 5.476562 0.40625 3.835938 -0.296875 2.546875 -1.703125 C 1.265625 -3.109375 0.625 -4.832031 0.625 -6.875 C 0.625 -8.914062 1.265625 -10.644531 2.546875 -12.0625 C 3.835938 -13.476562 5.476562 -14.1875 7.46875 -14.1875 C 9.238281 -14.1875 10.71875 -13.640625 11.90625 -12.546875 L 11.984375 -12.546875 L 11.984375 -13.78125 L 16.734375 -13.78125 L 16.734375 0.375 C 16.734375 2.613281 15.988281 4.34375 14.5 5.5625 C 13.019531 6.78125 11.0625 7.390625 8.625 7.390625 C 4.6875 7.390625 2.144531 6.054688 1 3.390625 Z M 6.59375 -9.203125 C 5.976562 -8.597656 5.671875 -7.820312 5.671875 -6.875 C 5.671875 -5.925781 5.960938 -5.148438 6.546875 -4.546875 C 7.140625 -3.953125 7.921875 -3.65625 8.890625 -3.65625 C 9.816406 -3.65625 10.582031 -3.957031 11.1875 -4.5625 C 11.789062 -5.175781 12.09375 -5.945312 12.09375 -6.875 C 12.09375 -7.820312 11.78125 -8.597656 11.15625 -9.203125 C 10.539062 -9.816406 9.785156 -10.125 8.890625 -10.125 C 7.972656 -10.125 7.207031 -9.816406 6.59375 -9.203125 Z M 6.59375 -9.203125 "/></g></g></g><g fill="#000000" fill-opacity="1"><g transform="translate(135.116145, 24.649843)"><g/></g></g></g></g></g><g clip-path="url(#47f2a94ccc)"><g transform="matrix(1, 0, 0, 1, -0.000000000000000111, -0.000000000000001055)"><g clip-path="url(#c45799c0b5)"><g fill="#ff914d" fill-opacity="1"><g transform="translate(18.371002, 24.649843)"><g><path d="M 15.546875 -6.234375 L 5.5625 -6.234375 C 5.5625 -5.265625 5.875 -4.546875 6.5 -4.078125 C 7.125 -3.617188 7.804688 -3.390625 8.546875 -3.390625 C 9.316406 -3.390625 9.925781 -3.488281 10.375 -3.6875 C 10.820312 -3.894531 11.332031 -4.304688 11.90625 -4.921875 L 15.34375 -3.203125 C 13.90625 -0.796875 11.519531 0.40625 8.1875 0.40625 C 6.113281 0.40625 4.332031 -0.304688 2.84375 -1.734375 C 1.363281 -3.160156 0.625 -4.875 0.625 -6.875 C 0.625 -8.882812 1.363281 -10.601562 2.84375 -12.03125 C 4.332031 -13.46875 6.113281 -14.1875 8.1875 -14.1875 C 10.375 -14.1875 12.148438 -13.550781 13.515625 -12.28125 C 14.890625 -11.019531 15.578125 -9.21875 15.578125 -6.875 C 15.578125 -6.550781 15.566406 -6.335938 15.546875 -6.234375 Z M 5.6875 -8.859375 L 10.9375 -8.859375 C 10.820312 -9.578125 10.535156 -10.128906 10.078125 -10.515625 C 9.628906 -10.898438 9.046875 -11.09375 8.328125 -11.09375 C 7.535156 -11.09375 6.90625 -10.882812 6.4375 -10.46875 C 5.976562 -10.0625 5.726562 -9.523438 5.6875 -8.859375 Z M 5.6875 -8.859375 "/></g></g></g><g clip-path="url(#4aa6ddf8a7)"><g fill="#ff914d" fill-opacity="1"><g transform="translate(1.64187, 24.649843)"><g><path d="M 8.546875 0 L -0.75 -22.15625 L 4.9375 -22.15625 L 10.53125 -7.59375 L 16.109375 -22.15625 L 21.8125 -22.15625 L 12.515625 0 Z M 8.546875 0 "/></g></g></g></g><g fill="#000000" fill-opacity="1"><g transform="translate(20.737439, 24.649843)"><g/></g></g><g fill="#ff914d" fill-opacity="1"><g transform="translate(33.390192, 24.649843)"><g><path d="M 17.34375 -13.78125 L 10.796875 -7.203125 L 18 0 L 11.875 0 L 6.359375 -5.5 L 6.359375 0 L 1.609375 0 L 1.609375 -23.09375 L 6.359375 -23.09375 L 6.359375 -8.96875 L 11.171875 -13.78125 Z M 17.34375 -13.78125 "/></g></g></g><g fill="#000000" fill-opacity="1"><g transform="translate(48.779397, 24.649843)"><g/></g></g></g></g></g></svg>