<svg xmlns="http://www.w3.org/2000/svg" xmlns:xlink="http://www.w3.org/1999/xlink" width="40" zoomAndPan="magnify" viewBox="0 0 30 30.000001" height="40" preserveAspectRatio="xMidYMid meet" version="1.0"><defs><g/><clipPath id="35efd07c97"><path d="M 0.484375 0 L 29.515625 0 L 29.515625 29.03125 L 0.484375 29.03125 Z M 0.484375 0 " clip-rule="nonzero"/></clipPath><clipPath id="55ed4c9f8a"><path d="M 0.378906 1 L 6 1 L 6 6 L 0.378906 6 Z M 0.378906 1 " clip-rule="nonzero"/></clipPath><clipPath id="40db892809"><path d="M 8 1 L 12.921875 1 L 12.921875 6 L 8 6 Z M 8 1 " clip-rule="nonzero"/></clipPath><clipPath id="a4ba1bc7de"><rect x="0" width="13" y="0" height="9"/></clipPath></defs><g clip-path="url(#35efd07c97)"><path fill="#ffffff" d="M 0.484375 0 L 29.515625 0 L 29.515625 29.03125 L 0.484375 29.03125 Z M 0.484375 0 " fill-opacity="1" fill-rule="nonzero"/><path fill="#ffffff" d="M 0.484375 0 L 29.515625 0 L 29.515625 29.03125 L 0.484375 29.03125 Z M 0.484375 0 " fill-opacity="1" fill-rule="nonzero"/></g><g transform="matrix(1, 0, 0, 1, 8, 10)"><g clip-path="url(#a4ba1bc7de)"><g fill="#ff914d" fill-opacity="1"><g transform="translate(5.050939, 5.987224)"><g><path d="M 2.90625 -4.5 L 2.90625 -3.59375 L 1.359375 -3.59375 L 1.359375 -2.703125 L 2.828125 -2.703125 L 2.828125 -1.8125 L 1.359375 -1.8125 L 1.359375 -0.90625 L 2.90625 -0.90625 L 2.90625 0 L 0.328125 0 L 0.328125 -4.5 Z M 2.90625 -4.5 "/></g></g></g><g clip-path="url(#55ed4c9f8a)"><g fill="#ff914d" fill-opacity="1"><g transform="translate(0.787652, 5.987224)"><g><path d="M 1.734375 0 L -0.15625 -4.5 L 1 -4.5 L 2.140625 -1.546875 L 3.265625 -4.5 L 4.421875 -4.5 L 2.546875 0 Z M 1.734375 0 "/></g></g></g></g><g fill="#000000" fill-opacity="1"><g transform="translate(4.621002, 5.987224)"><g/></g></g><g clip-path="url(#40db892809)"><g fill="#ff914d" fill-opacity="1"><g transform="translate(7.879614, 5.987224)"><g><path d="M 4.421875 0 L 3.015625 0 L 1.359375 -1.90625 L 1.359375 0 L 0.328125 0 L 0.328125 -4.5 L 1.359375 -4.5 L 1.359375 -2.65625 L 2.890625 -4.5 L 4.140625 -4.5 L 2.328125 -2.359375 Z M 4.421875 0 "/></g></g></g></g><g fill="#000000" fill-opacity="1"><g transform="translate(11.729427, 5.987224)"><g/></g></g></g></g></svg>